<mxfile host="app.diagrams.net" modified="2022-09-26T06:06:18.022Z" agent="5.0 (Windows NT 10.0; Win64; x64) AppleWebKit/537.36 (KHTML, like Gecko) Chrome/105.0.0.0 Safari/537.36" etag="O-npGp_SoyVqU5V_dCAV" version="20.3.3" type="github">
  <diagram id="PM3H5B-v9-ui1oOpPCnI" name="Seite-1">
    <mxGraphModel dx="1422" dy="954" grid="1" gridSize="10" guides="1" tooltips="1" connect="1" arrows="1" fold="1" page="1" pageScale="1" pageWidth="827" pageHeight="1169" math="0" shadow="0">
      <root>
        <mxCell id="0" />
        <mxCell id="1" parent="0" />
        <mxCell id="UGrRr01mG37VJURYtl3c-5" value="IAVJira" style="swimlane;fontStyle=1;align=center;verticalAlign=top;childLayout=stackLayout;horizontal=1;startSize=26;horizontalStack=0;resizeParent=1;resizeParentMax=0;resizeLast=0;collapsible=1;marginBottom=0;" parent="1" vertex="1">
          <mxGeometry x="50" y="410" width="210" height="368" as="geometry">
            <mxRectangle x="170" y="470" width="80" height="30" as="alternateBounds" />
          </mxGeometry>
        </mxCell>
        <mxCell id="UGrRr01mG37VJURYtl3c-6" value="+ elem_user: str&#xa;+ component_map:&#xa;" style="text;strokeColor=none;fillColor=none;align=left;verticalAlign=top;spacingLeft=4;spacingRight=4;overflow=hidden;rotatable=0;points=[[0,0.5],[1,0.5]];portConstraint=eastwest;" parent="UGrRr01mG37VJURYtl3c-5" vertex="1">
          <mxGeometry y="26" width="210" height="74" as="geometry" />
        </mxCell>
        <mxCell id="UGrRr01mG37VJURYtl3c-7" value="" style="line;strokeWidth=1;fillColor=none;align=left;verticalAlign=middle;spacingTop=-1;spacingLeft=3;spacingRight=3;rotatable=0;labelPosition=right;points=[];portConstraint=eastwest;strokeColor=inherit;" parent="UGrRr01mG37VJURYtl3c-5" vertex="1">
          <mxGeometry y="100" width="210" height="8" as="geometry" />
        </mxCell>
        <mxCell id="UGrRr01mG37VJURYtl3c-8" value="+ set_url_issus_all: type&#xa;+ update_url_issus_all&#xa;+ update_issues:issues&#xa;+ create_issues:&#xa;+ create_comment_link:&#xa;+ replace_special_characters:&#xa;+ get_vw_contact_person: &#xa;+ get_issue(override):&#xa;+ get_all_issues:&#xa;+ json_to_issue:&#xa;+ update_vw_attachments:&#xa;+ update_vw_ticket:&#xa;+ determine_assignee:&#xa;&#xa;&#xa;&#xa;&#xa;&#xa;" style="text;strokeColor=none;fillColor=none;align=left;verticalAlign=top;spacingLeft=4;spacingRight=4;overflow=hidden;rotatable=0;points=[[0,0.5],[1,0.5]];portConstraint=eastwest;" parent="UGrRr01mG37VJURYtl3c-5" vertex="1">
          <mxGeometry y="108" width="210" height="260" as="geometry" />
        </mxCell>
        <mxCell id="UGrRr01mG37VJURYtl3c-9" value="JiraBase" style="swimlane;fontStyle=1;align=center;verticalAlign=top;childLayout=stackLayout;horizontal=1;startSize=26;horizontalStack=0;resizeParent=1;resizeParentMax=0;resizeLast=0;collapsible=1;marginBottom=0;" parent="1" vertex="1">
          <mxGeometry x="290" y="200" width="160" height="86" as="geometry" />
        </mxCell>
        <mxCell id="UGrRr01mG37VJURYtl3c-10" value="+ field: type" style="text;strokeColor=none;fillColor=none;align=left;verticalAlign=top;spacingLeft=4;spacingRight=4;overflow=hidden;rotatable=0;points=[[0,0.5],[1,0.5]];portConstraint=eastwest;" parent="UGrRr01mG37VJURYtl3c-9" vertex="1">
          <mxGeometry y="26" width="160" height="26" as="geometry" />
        </mxCell>
        <mxCell id="UGrRr01mG37VJURYtl3c-11" value="" style="line;strokeWidth=1;fillColor=none;align=left;verticalAlign=middle;spacingTop=-1;spacingLeft=3;spacingRight=3;rotatable=0;labelPosition=right;points=[];portConstraint=eastwest;strokeColor=inherit;" parent="UGrRr01mG37VJURYtl3c-9" vertex="1">
          <mxGeometry y="52" width="160" height="8" as="geometry" />
        </mxCell>
        <mxCell id="UGrRr01mG37VJURYtl3c-12" value="+ method(type): type" style="text;strokeColor=none;fillColor=none;align=left;verticalAlign=top;spacingLeft=4;spacingRight=4;overflow=hidden;rotatable=0;points=[[0,0.5],[1,0.5]];portConstraint=eastwest;" parent="UGrRr01mG37VJURYtl3c-9" vertex="1">
          <mxGeometry y="60" width="160" height="26" as="geometry" />
        </mxCell>
        <mxCell id="UGrRr01mG37VJURYtl3c-13" value="JiraTukTuk" style="swimlane;fontStyle=1;align=center;verticalAlign=top;childLayout=stackLayout;horizontal=1;startSize=26;horizontalStack=0;resizeParent=1;resizeParentMax=0;resizeLast=0;collapsible=1;marginBottom=0;" parent="1" vertex="1">
          <mxGeometry x="290" y="410" width="160" height="380" as="geometry" />
        </mxCell>
        <mxCell id="UGrRr01mG37VJURYtl3c-14" value="+ field: type" style="text;strokeColor=none;fillColor=none;align=left;verticalAlign=top;spacingLeft=4;spacingRight=4;overflow=hidden;rotatable=0;points=[[0,0.5],[1,0.5]];portConstraint=eastwest;" parent="UGrRr01mG37VJURYtl3c-13" vertex="1">
          <mxGeometry y="26" width="160" height="26" as="geometry" />
        </mxCell>
        <mxCell id="UGrRr01mG37VJURYtl3c-15" value="" style="line;strokeWidth=1;fillColor=none;align=left;verticalAlign=middle;spacingTop=-1;spacingLeft=3;spacingRight=3;rotatable=0;labelPosition=right;points=[];portConstraint=eastwest;strokeColor=inherit;" parent="UGrRr01mG37VJURYtl3c-13" vertex="1">
          <mxGeometry y="52" width="160" height="8" as="geometry" />
        </mxCell>
        <mxCell id="UGrRr01mG37VJURYtl3c-16" value="+ run:&#xa;+ spawn_jiras:&#xa;++ spawn_iav_jira:&#xa;++ spawn_vw_jira:&#xa;&#xa;+ sync_iav_to_vw:&#xa;+ sync_vw_to_iav:&#xa;+ check_sessions_valid:&#xa;+ merge_updated_mirror_issues:&#xa;&#xa;+ sync_workflow:&#xa;+ on_log:&#xa;&#xa;Info Helpers:&#xa;+ get_version:&#xa;+ get_status_text:&#xa;+ get_status_html:&#xa;+ get_log_text:&#xa;+ get_log_html:&#xa;+ get_warnlog_text:&#xa;+ get_warnlog_html:&#xa;+ get_warnlog_isses_text:&#xa;&#xa;&#xa;Thread helper:&#xa;+ stop:&#xa;&#xa;Empty :&#xa;+ on_request_credentials:&#xa;+ on_auth_success:&#xa;+ on_auth_fail:&#xa;&#xa;&#xa;&#xa;" style="text;strokeColor=none;fillColor=none;align=left;verticalAlign=top;spacingLeft=4;spacingRight=4;overflow=hidden;rotatable=0;points=[[0,0.5],[1,0.5]];portConstraint=eastwest;" parent="UGrRr01mG37VJURYtl3c-13" vertex="1">
          <mxGeometry y="60" width="160" height="320" as="geometry" />
        </mxCell>
        <mxCell id="UGrRr01mG37VJURYtl3c-17" value="VWJira" style="swimlane;fontStyle=1;align=center;verticalAlign=top;childLayout=stackLayout;horizontal=1;startSize=26;horizontalStack=0;resizeParent=1;resizeParentMax=0;resizeLast=0;collapsible=1;marginBottom=0;" parent="1" vertex="1">
          <mxGeometry x="500" y="410" width="220" height="370" as="geometry" />
        </mxCell>
        <mxCell id="UGrRr01mG37VJURYtl3c-18" value="+ field: type" style="text;strokeColor=none;fillColor=none;align=left;verticalAlign=top;spacingLeft=4;spacingRight=4;overflow=hidden;rotatable=0;points=[[0,0.5],[1,0.5]];portConstraint=eastwest;" parent="UGrRr01mG37VJURYtl3c-17" vertex="1">
          <mxGeometry y="26" width="220" height="26" as="geometry" />
        </mxCell>
        <mxCell id="UGrRr01mG37VJURYtl3c-19" value="" style="line;strokeWidth=1;fillColor=none;align=left;verticalAlign=middle;spacingTop=-1;spacingLeft=3;spacingRight=3;rotatable=0;labelPosition=right;points=[];portConstraint=eastwest;strokeColor=inherit;" parent="UGrRr01mG37VJURYtl3c-17" vertex="1">
          <mxGeometry y="52" width="220" height="8" as="geometry" />
        </mxCell>
        <mxCell id="UGrRr01mG37VJURYtl3c-20" value="+ set_url_issus_all: type&#xa;+ update_url_issus_all&#xa;+ update_issues:&#xa;+ create_issues:&#xa;+ update_iav_issue:&#xa;+ create_comment_link:&#xa;+ get_issue:&#xa;+ get_all_issues:&#xa;+ json_to_issue:&#xa;+ determine_assignee:&#xa;+ convert_project:&#xa;&#xa;+ update_iav_attachments:&#xa;+ update_iav_ticket:&#xa;+ set_assignee_to_close:&#xa;+ set_ticket_manager_as_assignee:&#xa;+ set_reporter_as_assignee:&#xa;+ set_testdesigner_as_assignee:&#xa;&#xa;" style="text;strokeColor=none;fillColor=none;align=left;verticalAlign=top;spacingLeft=4;spacingRight=4;overflow=hidden;rotatable=0;points=[[0,0.5],[1,0.5]];portConstraint=eastwest;fontStyle=0" parent="UGrRr01mG37VJURYtl3c-17" vertex="1">
          <mxGeometry y="60" width="220" height="310" as="geometry" />
        </mxCell>
        <mxCell id="UGrRr01mG37VJURYtl3c-22" value="" style="endArrow=none;html=1;edgeStyle=orthogonalEdgeStyle;rounded=0;entryX=0.478;entryY=0;entryDx=0;entryDy=0;entryPerimeter=0;" parent="1" target="UGrRr01mG37VJURYtl3c-5" edge="1">
          <mxGeometry relative="1" as="geometry">
            <mxPoint x="290" y="240" as="sourcePoint" />
            <mxPoint x="350" y="360" as="targetPoint" />
            <Array as="points">
              <mxPoint x="150" y="240" />
            </Array>
          </mxGeometry>
        </mxCell>
        <mxCell id="UGrRr01mG37VJURYtl3c-23" value="parent" style="edgeLabel;resizable=0;html=1;align=left;verticalAlign=bottom;" parent="UGrRr01mG37VJURYtl3c-22" connectable="0" vertex="1">
          <mxGeometry x="-1" relative="1" as="geometry">
            <mxPoint x="-41" as="offset" />
          </mxGeometry>
        </mxCell>
        <mxCell id="UGrRr01mG37VJURYtl3c-24" value="child" style="edgeLabel;resizable=0;html=1;align=right;verticalAlign=bottom;" parent="UGrRr01mG37VJURYtl3c-22" connectable="0" vertex="1">
          <mxGeometry x="1" relative="1" as="geometry" />
        </mxCell>
        <mxCell id="UGrRr01mG37VJURYtl3c-25" value="" style="endArrow=none;html=1;edgeStyle=orthogonalEdgeStyle;rounded=0;exitX=1;exitY=0.5;exitDx=0;exitDy=0;entryX=0.5;entryY=0;entryDx=0;entryDy=0;" parent="1" source="UGrRr01mG37VJURYtl3c-10" target="UGrRr01mG37VJURYtl3c-17" edge="1">
          <mxGeometry relative="1" as="geometry">
            <mxPoint x="560" y="330" as="sourcePoint" />
            <mxPoint x="720" y="330" as="targetPoint" />
            <Array as="points">
              <mxPoint x="610" y="239" />
            </Array>
          </mxGeometry>
        </mxCell>
        <mxCell id="UGrRr01mG37VJURYtl3c-26" value="parent" style="edgeLabel;resizable=0;html=1;align=left;verticalAlign=bottom;" parent="UGrRr01mG37VJURYtl3c-25" connectable="0" vertex="1">
          <mxGeometry x="-1" relative="1" as="geometry" />
        </mxCell>
        <mxCell id="UGrRr01mG37VJURYtl3c-27" value="child" style="edgeLabel;resizable=0;html=1;align=right;verticalAlign=bottom;" parent="UGrRr01mG37VJURYtl3c-25" connectable="0" vertex="1">
          <mxGeometry x="1" relative="1" as="geometry" />
        </mxCell>
        <mxCell id="A8SuVj7kzore_3M0HXv3-1" value="User" style="shape=umlActor;verticalLabelPosition=bottom;verticalAlign=top;html=1;outlineConnect=0;" vertex="1" parent="1">
          <mxGeometry x="170" y="1090" width="30" height="50" as="geometry" />
        </mxCell>
        <mxCell id="A8SuVj7kzore_3M0HXv3-7" value="" style="rounded=0;whiteSpace=wrap;html=1;rotation=90;" vertex="1" parent="1">
          <mxGeometry x="148.38" y="1018.27" width="679.34" height="423.62" as="geometry" />
        </mxCell>
        <mxCell id="A8SuVj7kzore_3M0HXv3-8" value="XiL Anzeige" style="text;html=1;strokeColor=none;fillColor=none;align=center;verticalAlign=middle;whiteSpace=wrap;rounded=0;" vertex="1" parent="1">
          <mxGeometry x="284.67" y="900" width="80" height="20" as="geometry" />
        </mxCell>
        <mxCell id="A8SuVj7kzore_3M0HXv3-9" value="Prüfstand/ Remote Computer&lt;br&gt;&lt;b&gt;Activity&lt;/b&gt;" style="ellipse;whiteSpace=wrap;html=1;" vertex="1" parent="1">
          <mxGeometry x="316.13" y="976" width="139.25" height="80" as="geometry" />
        </mxCell>
        <mxCell id="A8SuVj7kzore_3M0HXv3-10" value="&lt;b&gt;Status&lt;/b&gt; of Prüfstand/&lt;br&gt;Remote Computer" style="ellipse;whiteSpace=wrap;html=1;" vertex="1" parent="1">
          <mxGeometry x="316.13" y="1160" width="143.87" height="90" as="geometry" />
        </mxCell>
        <mxCell id="A8SuVj7kzore_3M0HXv3-11" value="Connect" style="ellipse;whiteSpace=wrap;html=1;" vertex="1" parent="1">
          <mxGeometry x="560" y="930" width="80" height="40" as="geometry" />
        </mxCell>
        <mxCell id="A8SuVj7kzore_3M0HXv3-13" value="Use" style="endArrow=open;endSize=12;dashed=1;html=1;rounded=0;entryX=0.013;entryY=0.619;entryDx=0;entryDy=0;entryPerimeter=0;" edge="1" parent="1" target="A8SuVj7kzore_3M0HXv3-11">
          <mxGeometry width="160" relative="1" as="geometry">
            <mxPoint x="460" y="1020" as="sourcePoint" />
            <mxPoint x="620" y="1006" as="targetPoint" />
          </mxGeometry>
        </mxCell>
        <mxCell id="A8SuVj7kzore_3M0HXv3-14" value="Disconect" style="ellipse;whiteSpace=wrap;html=1;" vertex="1" parent="1">
          <mxGeometry x="560" y="990" width="80" height="40" as="geometry" />
        </mxCell>
        <mxCell id="A8SuVj7kzore_3M0HXv3-16" value="Use" style="endArrow=open;endSize=12;dashed=1;html=1;rounded=0;entryX=0;entryY=0.5;entryDx=0;entryDy=0;" edge="1" parent="1" target="A8SuVj7kzore_3M0HXv3-14">
          <mxGeometry width="160" relative="1" as="geometry">
            <mxPoint x="460" y="1020" as="sourcePoint" />
            <mxPoint x="620" y="1016" as="targetPoint" />
          </mxGeometry>
        </mxCell>
        <mxCell id="A8SuVj7kzore_3M0HXv3-17" value="Use" style="endArrow=open;endSize=12;dashed=1;html=1;rounded=0;entryX=0;entryY=0.5;entryDx=0;entryDy=0;" edge="1" parent="1" target="A8SuVj7kzore_3M0HXv3-18">
          <mxGeometry width="160" relative="1" as="geometry">
            <mxPoint x="460" y="1200" as="sourcePoint" />
            <mxPoint x="620" y="1200" as="targetPoint" />
          </mxGeometry>
        </mxCell>
        <mxCell id="A8SuVj7kzore_3M0HXv3-18" value="occupation&amp;nbsp;&lt;br&gt;status" style="ellipse;whiteSpace=wrap;html=1;" vertex="1" parent="1">
          <mxGeometry x="555" y="1126.26" width="90" height="50" as="geometry" />
        </mxCell>
        <mxCell id="A8SuVj7kzore_3M0HXv3-20" value="observe" style="ellipse;whiteSpace=wrap;html=1;" vertex="1" parent="1">
          <mxGeometry x="552.5" y="1270" width="90" height="50" as="geometry" />
        </mxCell>
        <mxCell id="A8SuVj7kzore_3M0HXv3-21" value="Use" style="endArrow=open;endSize=12;dashed=1;html=1;rounded=0;" edge="1" parent="1" target="A8SuVj7kzore_3M0HXv3-20">
          <mxGeometry width="160" relative="1" as="geometry">
            <mxPoint x="460" y="1200" as="sourcePoint" />
            <mxPoint x="620" y="1200" as="targetPoint" />
          </mxGeometry>
        </mxCell>
        <mxCell id="A8SuVj7kzore_3M0HXv3-22" value="report follow" style="ellipse;whiteSpace=wrap;html=1;" vertex="1" parent="1">
          <mxGeometry x="550" y="1440" width="85" height="50" as="geometry" />
        </mxCell>
        <mxCell id="A8SuVj7kzore_3M0HXv3-23" value="report" style="ellipse;whiteSpace=wrap;html=1;" vertex="1" parent="1">
          <mxGeometry x="561.75" y="1050" width="76.5" height="40" as="geometry" />
        </mxCell>
        <mxCell id="A8SuVj7kzore_3M0HXv3-24" value="Use" style="endArrow=open;endSize=12;dashed=1;html=1;rounded=0;entryX=0;entryY=0.5;entryDx=0;entryDy=0;" edge="1" parent="1" target="A8SuVj7kzore_3M0HXv3-23">
          <mxGeometry width="160" relative="1" as="geometry">
            <mxPoint x="460" y="1020" as="sourcePoint" />
            <mxPoint x="620" y="1020" as="targetPoint" />
          </mxGeometry>
        </mxCell>
        <mxCell id="A8SuVj7kzore_3M0HXv3-25" value="Use" style="endArrow=open;endSize=12;dashed=1;html=1;rounded=0;entryX=0;entryY=0.5;entryDx=0;entryDy=0;" edge="1" parent="1" target="A8SuVj7kzore_3M0HXv3-22">
          <mxGeometry width="160" relative="1" as="geometry">
            <mxPoint x="460" y="1200" as="sourcePoint" />
            <mxPoint x="620" y="1200" as="targetPoint" />
          </mxGeometry>
        </mxCell>
        <mxCell id="A8SuVj7kzore_3M0HXv3-26" value="decription" style="ellipse;whiteSpace=wrap;html=1;" vertex="1" parent="1">
          <mxGeometry x="552.5" y="1190" width="90" height="50" as="geometry" />
        </mxCell>
        <mxCell id="A8SuVj7kzore_3M0HXv3-27" value="Use" style="endArrow=open;endSize=12;dashed=1;html=1;rounded=0;entryX=0;entryY=0.5;entryDx=0;entryDy=0;" edge="1" parent="1" target="A8SuVj7kzore_3M0HXv3-26">
          <mxGeometry width="160" relative="1" as="geometry">
            <mxPoint x="460" y="1200" as="sourcePoint" />
            <mxPoint x="620" y="1200" as="targetPoint" />
          </mxGeometry>
        </mxCell>
        <mxCell id="A8SuVj7kzore_3M0HXv3-31" value="" style="endArrow=open;endFill=1;endSize=12;html=1;rounded=0;entryX=0.015;entryY=0.618;entryDx=0;entryDy=0;entryPerimeter=0;" edge="1" parent="1" target="A8SuVj7kzore_3M0HXv3-9">
          <mxGeometry width="160" relative="1" as="geometry">
            <mxPoint x="210" y="1120" as="sourcePoint" />
            <mxPoint x="364.67" y="1119.66" as="targetPoint" />
          </mxGeometry>
        </mxCell>
        <mxCell id="A8SuVj7kzore_3M0HXv3-32" value="" style="endArrow=open;endFill=1;endSize=12;html=1;rounded=0;entryX=0;entryY=0.5;entryDx=0;entryDy=0;" edge="1" parent="1" target="A8SuVj7kzore_3M0HXv3-10">
          <mxGeometry width="160" relative="1" as="geometry">
            <mxPoint x="210" y="1120" as="sourcePoint" />
            <mxPoint x="360" y="1120" as="targetPoint" />
          </mxGeometry>
        </mxCell>
        <mxCell id="A8SuVj7kzore_3M0HXv3-33" value="" style="rounded=0;whiteSpace=wrap;html=1;rotation=90;" vertex="1" parent="1">
          <mxGeometry x="795.2" y="937.07" width="332.87" height="231.26" as="geometry" />
        </mxCell>
        <mxCell id="A8SuVj7kzore_3M0HXv3-34" value="log in&amp;nbsp;" style="ellipse;whiteSpace=wrap;html=1;" vertex="1" parent="1">
          <mxGeometry x="928.5" y="930" width="95" height="60" as="geometry" />
        </mxCell>
        <mxCell id="A8SuVj7kzore_3M0HXv3-35" value="log out" style="ellipse;whiteSpace=wrap;html=1;" vertex="1" parent="1">
          <mxGeometry x="928.5" y="1010" width="95" height="60" as="geometry" />
        </mxCell>
        <mxCell id="A8SuVj7kzore_3M0HXv3-37" value="Remote Computer" style="text;html=1;strokeColor=none;fillColor=none;align=center;verticalAlign=middle;whiteSpace=wrap;rounded=0;" vertex="1" parent="1">
          <mxGeometry x="840" y="890" width="135" height="30" as="geometry" />
        </mxCell>
        <mxCell id="A8SuVj7kzore_3M0HXv3-38" value="Shared Account" style="shape=umlActor;verticalLabelPosition=bottom;verticalAlign=top;html=1;" vertex="1" parent="1">
          <mxGeometry x="760" y="951.26" width="40" height="68.74" as="geometry" />
        </mxCell>
        <mxCell id="A8SuVj7kzore_3M0HXv3-41" value="" style="endArrow=open;endFill=1;endSize=12;html=1;rounded=0;entryX=0;entryY=0.3333333333333333;entryDx=0;entryDy=0;entryPerimeter=0;" edge="1" parent="1" target="A8SuVj7kzore_3M0HXv3-38">
          <mxGeometry width="160" relative="1" as="geometry">
            <mxPoint x="640" y="950" as="sourcePoint" />
            <mxPoint x="800" y="950" as="targetPoint" />
          </mxGeometry>
        </mxCell>
        <mxCell id="A8SuVj7kzore_3M0HXv3-42" value="" style="endArrow=open;endFill=1;endSize=12;html=1;rounded=0;entryX=0;entryY=0.3333333333333333;entryDx=0;entryDy=0;entryPerimeter=0;exitX=1;exitY=0.5;exitDx=0;exitDy=0;" edge="1" parent="1" source="A8SuVj7kzore_3M0HXv3-14" target="A8SuVj7kzore_3M0HXv3-38">
          <mxGeometry width="160" relative="1" as="geometry">
            <mxPoint x="650" y="960" as="sourcePoint" />
            <mxPoint x="750" y="985" as="targetPoint" />
          </mxGeometry>
        </mxCell>
        <mxCell id="A8SuVj7kzore_3M0HXv3-43" value="" style="endArrow=open;endFill=1;endSize=12;html=1;rounded=0;exitX=1;exitY=0.3333333333333333;exitDx=0;exitDy=0;exitPerimeter=0;entryX=0.028;entryY=0.653;entryDx=0;entryDy=0;entryPerimeter=0;" edge="1" parent="1" source="A8SuVj7kzore_3M0HXv3-38" target="A8SuVj7kzore_3M0HXv3-34">
          <mxGeometry width="160" relative="1" as="geometry">
            <mxPoint x="850" y="990" as="sourcePoint" />
            <mxPoint x="1010" y="990" as="targetPoint" />
          </mxGeometry>
        </mxCell>
        <mxCell id="A8SuVj7kzore_3M0HXv3-44" value="" style="endArrow=open;endFill=1;endSize=12;html=1;rounded=0;exitX=1;exitY=0.3333333333333333;exitDx=0;exitDy=0;exitPerimeter=0;entryX=0;entryY=0.5;entryDx=0;entryDy=0;" edge="1" parent="1" source="A8SuVj7kzore_3M0HXv3-38" target="A8SuVj7kzore_3M0HXv3-35">
          <mxGeometry width="160" relative="1" as="geometry">
            <mxPoint x="820" y="985" as="sourcePoint" />
            <mxPoint x="941.1599999999999" y="979.1800000000001" as="targetPoint" />
          </mxGeometry>
        </mxCell>
        <mxCell id="A8SuVj7kzore_3M0HXv3-45" value="EXAM&amp;nbsp;" style="ellipse;whiteSpace=wrap;html=1;" vertex="1" parent="1">
          <mxGeometry x="934" y="1080" width="84" height="60" as="geometry" />
        </mxCell>
        <mxCell id="A8SuVj7kzore_3M0HXv3-46" value="Control desk..." style="ellipse;whiteSpace=wrap;html=1;" vertex="1" parent="1">
          <mxGeometry x="924" y="1150" width="104" height="60" as="geometry" />
        </mxCell>
        <mxCell id="A8SuVj7kzore_3M0HXv3-47" value="" style="endArrow=open;endFill=1;endSize=12;html=1;rounded=0;exitX=1;exitY=0.3333333333333333;exitDx=0;exitDy=0;exitPerimeter=0;entryX=0;entryY=0.5;entryDx=0;entryDy=0;" edge="1" parent="1" source="A8SuVj7kzore_3M0HXv3-38" target="A8SuVj7kzore_3M0HXv3-45">
          <mxGeometry width="160" relative="1" as="geometry">
            <mxPoint x="830" y="1110" as="sourcePoint" />
            <mxPoint x="990" y="1110" as="targetPoint" />
          </mxGeometry>
        </mxCell>
        <mxCell id="A8SuVj7kzore_3M0HXv3-48" value="" style="endArrow=open;endFill=1;endSize=12;html=1;rounded=0;exitX=1;exitY=0.3333333333333333;exitDx=0;exitDy=0;exitPerimeter=0;entryX=0.013;entryY=0.625;entryDx=0;entryDy=0;entryPerimeter=0;" edge="1" parent="1" source="A8SuVj7kzore_3M0HXv3-38" target="A8SuVj7kzore_3M0HXv3-46">
          <mxGeometry width="160" relative="1" as="geometry">
            <mxPoint x="850" y="1210" as="sourcePoint" />
            <mxPoint x="1010" y="1210" as="targetPoint" />
          </mxGeometry>
        </mxCell>
        <mxCell id="A8SuVj7kzore_3M0HXv3-50" value="" style="rounded=0;whiteSpace=wrap;html=1;rotation=90;" vertex="1" parent="1">
          <mxGeometry x="1043.75" y="943.75" width="352.5" height="245" as="geometry" />
        </mxCell>
        <mxCell id="A8SuVj7kzore_3M0HXv3-51" value="Server" style="text;html=1;strokeColor=none;fillColor=none;align=center;verticalAlign=middle;whiteSpace=wrap;rounded=0;" vertex="1" parent="1">
          <mxGeometry x="1090" y="890" width="80" height="40" as="geometry" />
        </mxCell>
        <mxCell id="A8SuVj7kzore_3M0HXv3-52" value="Heidi SQL" style="strokeWidth=2;html=1;shape=mxgraph.flowchart.database;whiteSpace=wrap;" vertex="1" parent="1">
          <mxGeometry x="1155" y="950.5" width="130" height="144" as="geometry" />
        </mxCell>
        <mxCell id="A8SuVj7kzore_3M0HXv3-53" value="" style="endArrow=open;endFill=1;endSize=12;html=1;rounded=0;exitX=1;exitY=0.5;exitDx=0;exitDy=0;entryX=0;entryY=0.5;entryDx=0;entryDy=0;entryPerimeter=0;" edge="1" parent="1" source="A8SuVj7kzore_3M0HXv3-34" target="A8SuVj7kzore_3M0HXv3-52">
          <mxGeometry width="160" relative="1" as="geometry">
            <mxPoint x="620" y="1200" as="sourcePoint" />
            <mxPoint x="780" y="1200" as="targetPoint" />
          </mxGeometry>
        </mxCell>
        <mxCell id="A8SuVj7kzore_3M0HXv3-55" value="" style="endArrow=open;endFill=1;endSize=12;html=1;rounded=0;exitX=1;exitY=0.5;exitDx=0;exitDy=0;entryX=0;entryY=0.5;entryDx=0;entryDy=0;entryPerimeter=0;" edge="1" parent="1" source="A8SuVj7kzore_3M0HXv3-35" target="A8SuVj7kzore_3M0HXv3-52">
          <mxGeometry width="160" relative="1" as="geometry">
            <mxPoint x="1033.5" y="970" as="sourcePoint" />
            <mxPoint x="1160" y="1020" as="targetPoint" />
          </mxGeometry>
        </mxCell>
        <mxCell id="A8SuVj7kzore_3M0HXv3-56" value="" style="endArrow=open;endFill=1;endSize=12;html=1;rounded=0;exitX=1;exitY=0.5;exitDx=0;exitDy=0;entryX=0;entryY=0.5;entryDx=0;entryDy=0;entryPerimeter=0;" edge="1" parent="1" source="A8SuVj7kzore_3M0HXv3-45" target="A8SuVj7kzore_3M0HXv3-52">
          <mxGeometry width="160" relative="1" as="geometry">
            <mxPoint x="1043.5" y="980" as="sourcePoint" />
            <mxPoint x="1175" y="1042.5" as="targetPoint" />
          </mxGeometry>
        </mxCell>
        <mxCell id="A8SuVj7kzore_3M0HXv3-57" value="" style="endArrow=open;endFill=1;endSize=12;html=1;rounded=0;exitX=1;exitY=0.5;exitDx=0;exitDy=0;entryX=0;entryY=0.5;entryDx=0;entryDy=0;entryPerimeter=0;" edge="1" parent="1" source="A8SuVj7kzore_3M0HXv3-22" target="A8SuVj7kzore_3M0HXv3-52">
          <mxGeometry width="160" relative="1" as="geometry">
            <mxPoint x="640" y="1460" as="sourcePoint" />
            <mxPoint x="800" y="1460" as="targetPoint" />
            <Array as="points">
              <mxPoint x="1110" y="1465" />
              <mxPoint x="1110" y="1100" />
            </Array>
          </mxGeometry>
        </mxCell>
        <mxCell id="A8SuVj7kzore_3M0HXv3-58" value="User Email Address" style="text;html=1;strokeColor=none;fillColor=none;align=center;verticalAlign=middle;whiteSpace=wrap;rounded=0;" vertex="1" parent="1">
          <mxGeometry x="770" y="1450" width="150" height="20" as="geometry" />
        </mxCell>
        <mxCell id="A8SuVj7kzore_3M0HXv3-60" value="" style="rounded=0;whiteSpace=wrap;html=1;" vertex="1" parent="1">
          <mxGeometry x="277.13" y="1590" width="422.87" height="140" as="geometry" />
        </mxCell>
        <mxCell id="A8SuVj7kzore_3M0HXv3-61" value="" style="edgeStyle=elbowEdgeStyle;elbow=vertical;endArrow=classic;html=1;rounded=0;exitX=1;exitY=0.5;exitDx=0;exitDy=0;" edge="1" parent="1" source="A8SuVj7kzore_3M0HXv3-23">
          <mxGeometry width="50" height="50" relative="1" as="geometry">
            <mxPoint x="830" y="1320" as="sourcePoint" />
            <mxPoint x="1150" y="1020" as="targetPoint" />
            <Array as="points">
              <mxPoint x="670" y="870" />
              <mxPoint x="920" y="870" />
              <mxPoint x="870" y="840" />
              <mxPoint x="720" y="1160" />
              <mxPoint x="920" y="1260" />
            </Array>
          </mxGeometry>
        </mxCell>
        <mxCell id="A8SuVj7kzore_3M0HXv3-62" value="Reported Problem" style="text;html=1;strokeColor=none;fillColor=none;align=center;verticalAlign=middle;whiteSpace=wrap;rounded=0;" vertex="1" parent="1">
          <mxGeometry x="844.5" y="840" width="125.5" height="30" as="geometry" />
        </mxCell>
        <mxCell id="A8SuVj7kzore_3M0HXv3-64" value="Outlook&lt;br&gt;" style="text;html=1;strokeColor=none;fillColor=none;align=center;verticalAlign=middle;whiteSpace=wrap;rounded=0;" vertex="1" parent="1">
          <mxGeometry x="270" y="1590" width="85" height="40" as="geometry" />
        </mxCell>
        <mxCell id="A8SuVj7kzore_3M0HXv3-66" value="" style="endArrow=open;endFill=1;endSize=12;html=1;rounded=0;exitX=0.5;exitY=1;exitDx=0;exitDy=0;exitPerimeter=0;entryX=1;entryY=0.5;entryDx=0;entryDy=0;" edge="1" parent="1" source="A8SuVj7kzore_3M0HXv3-52">
          <mxGeometry width="160" relative="1" as="geometry">
            <mxPoint x="1110" y="1570" as="sourcePoint" />
            <mxPoint x="561.75" y="1665" as="targetPoint" />
            <Array as="points">
              <mxPoint x="1220" y="1665" />
            </Array>
          </mxGeometry>
        </mxCell>
        <mxCell id="A8SuVj7kzore_3M0HXv3-67" value="" style="rounded=0;whiteSpace=wrap;html=1;" vertex="1" parent="1">
          <mxGeometry x="845" y="1250" width="235" height="130" as="geometry" />
        </mxCell>
        <mxCell id="A8SuVj7kzore_3M0HXv3-69" value="Report of new Problem&lt;br&gt;Form : Email&amp;nbsp;" style="html=1;" vertex="1" parent="1">
          <mxGeometry x="381.75" y="1630" width="180" height="70" as="geometry" />
        </mxCell>
        <mxCell id="A8SuVj7kzore_3M0HXv3-70" value="Shared Drive" style="text;html=1;strokeColor=none;fillColor=none;align=center;verticalAlign=middle;whiteSpace=wrap;rounded=0;" vertex="1" parent="1">
          <mxGeometry x="840" y="1250" width="110" height="40" as="geometry" />
        </mxCell>
        <mxCell id="A8SuVj7kzore_3M0HXv3-71" value="Status &amp;amp; Infos &amp;amp; Problems&lt;br&gt;of&lt;br&gt;Prüfstand/ Remote PC" style="rounded=0;whiteSpace=wrap;html=1;" vertex="1" parent="1">
          <mxGeometry x="885.5" y="1300" width="158.25" height="60" as="geometry" />
        </mxCell>
        <mxCell id="A8SuVj7kzore_3M0HXv3-72" value="" style="endArrow=open;endFill=1;endSize=12;html=1;rounded=0;exitX=0.5;exitY=1;exitDx=0;exitDy=0;exitPerimeter=0;entryX=1;entryY=0.5;entryDx=0;entryDy=0;" edge="1" parent="1" source="A8SuVj7kzore_3M0HXv3-52" target="A8SuVj7kzore_3M0HXv3-71">
          <mxGeometry width="160" relative="1" as="geometry">
            <mxPoint x="1000" y="1350" as="sourcePoint" />
            <mxPoint x="1160" y="1350" as="targetPoint" />
            <Array as="points">
              <mxPoint x="1200" y="1160" />
              <mxPoint x="1150" y="1160" />
              <mxPoint x="1150" y="1330" />
            </Array>
          </mxGeometry>
        </mxCell>
        <mxCell id="A8SuVj7kzore_3M0HXv3-73" value="" style="endArrow=open;endFill=1;endSize=12;html=1;rounded=0;entryX=1;entryY=0.5;entryDx=0;entryDy=0;exitX=0;exitY=0.5;exitDx=0;exitDy=0;" edge="1" parent="1" source="A8SuVj7kzore_3M0HXv3-71" target="A8SuVj7kzore_3M0HXv3-26">
          <mxGeometry width="160" relative="1" as="geometry">
            <mxPoint x="710" y="1330" as="sourcePoint" />
            <mxPoint x="870" y="1330" as="targetPoint" />
          </mxGeometry>
        </mxCell>
        <mxCell id="A8SuVj7kzore_3M0HXv3-74" value="" style="endArrow=open;endFill=1;endSize=12;html=1;rounded=0;exitX=0;exitY=0.5;exitDx=0;exitDy=0;entryX=1;entryY=0.5;entryDx=0;entryDy=0;" edge="1" parent="1" source="A8SuVj7kzore_3M0HXv3-71" target="A8SuVj7kzore_3M0HXv3-18">
          <mxGeometry width="160" relative="1" as="geometry">
            <mxPoint x="840" y="1580" as="sourcePoint" />
            <mxPoint x="1000" y="1580" as="targetPoint" />
          </mxGeometry>
        </mxCell>
        <mxCell id="A8SuVj7kzore_3M0HXv3-82" style="edgeStyle=orthogonalEdgeStyle;rounded=0;orthogonalLoop=1;jettySize=auto;html=1;entryX=0;entryY=0;entryDx=0;entryDy=35;entryPerimeter=0;" edge="1" parent="1" source="A8SuVj7kzore_3M0HXv3-75" target="A8SuVj7kzore_3M0HXv3-76">
          <mxGeometry relative="1" as="geometry">
            <Array as="points">
              <mxPoint x="360" y="2125" />
              <mxPoint x="360" y="2125" />
            </Array>
          </mxGeometry>
        </mxCell>
        <mxCell id="A8SuVj7kzore_3M0HXv3-75" value="base&#xa;(back end : logic)" style="shape=module;align=left;spacingLeft=20;align=center;verticalAlign=top;" vertex="1" parent="1">
          <mxGeometry x="124.99999999999999" y="2095" width="230" height="60" as="geometry" />
        </mxCell>
        <mxCell id="A8SuVj7kzore_3M0HXv3-85" style="edgeStyle=orthogonalEdgeStyle;rounded=0;orthogonalLoop=1;jettySize=auto;html=1;exitX=1;exitY=0.5;exitDx=0;exitDy=0;entryX=0;entryY=0.5;entryDx=0;entryDy=0;" edge="1" parent="1" source="A8SuVj7kzore_3M0HXv3-76" target="A8SuVj7kzore_3M0HXv3-84">
          <mxGeometry relative="1" as="geometry" />
        </mxCell>
        <mxCell id="A8SuVj7kzore_3M0HXv3-76" value="gui&#xa;(front end)" style="shape=module;align=left;spacingLeft=20;align=center;verticalAlign=top;" vertex="1" parent="1">
          <mxGeometry x="420" y="2090" width="242.5" height="70" as="geometry" />
        </mxCell>
        <mxCell id="A8SuVj7kzore_3M0HXv3-79" style="edgeStyle=orthogonalEdgeStyle;rounded=0;orthogonalLoop=1;jettySize=auto;html=1;entryX=0;entryY=0.5;entryDx=0;entryDy=0;" edge="1" parent="1" source="A8SuVj7kzore_3M0HXv3-77" target="A8SuVj7kzore_3M0HXv3-78">
          <mxGeometry relative="1" as="geometry" />
        </mxCell>
        <mxCell id="A8SuVj7kzore_3M0HXv3-81" style="edgeStyle=orthogonalEdgeStyle;rounded=0;orthogonalLoop=1;jettySize=auto;html=1;entryX=0;entryY=0.5;entryDx=0;entryDy=0;" edge="1" parent="1" source="A8SuVj7kzore_3M0HXv3-77" target="A8SuVj7kzore_3M0HXv3-80">
          <mxGeometry relative="1" as="geometry" />
        </mxCell>
        <mxCell id="A8SuVj7kzore_3M0HXv3-83" style="edgeStyle=orthogonalEdgeStyle;rounded=0;orthogonalLoop=1;jettySize=auto;html=1;exitX=0;exitY=0;exitDx=0;exitDy=35;exitPerimeter=0;entryX=0;entryY=0;entryDx=0;entryDy=15;entryPerimeter=0;" edge="1" parent="1" source="A8SuVj7kzore_3M0HXv3-77" target="A8SuVj7kzore_3M0HXv3-76">
          <mxGeometry relative="1" as="geometry" />
        </mxCell>
        <mxCell id="A8SuVj7kzore_3M0HXv3-77" value="libraries" style="shape=module;align=left;spacingLeft=20;align=center;verticalAlign=top;" vertex="1" parent="1">
          <mxGeometry x="453.25" y="1900" width="185" height="60" as="geometry" />
        </mxCell>
        <mxCell id="A8SuVj7kzore_3M0HXv3-78" value="Language Pool" style="text;strokeColor=none;fillColor=none;align=left;verticalAlign=top;spacingLeft=4;spacingRight=4;overflow=hidden;rotatable=0;points=[[0,0.5],[1,0.5]];portConstraint=eastwest;" vertex="1" parent="1">
          <mxGeometry x="720" y="1900" width="100" height="26" as="geometry" />
        </mxCell>
        <mxCell id="A8SuVj7kzore_3M0HXv3-80" value="image and button resources" style="text;strokeColor=none;fillColor=none;align=left;verticalAlign=top;spacingLeft=4;spacingRight=4;overflow=hidden;rotatable=0;points=[[0,0.5],[1,0.5]];portConstraint=eastwest;" vertex="1" parent="1">
          <mxGeometry x="718.5" y="1944" width="167" height="26" as="geometry" />
        </mxCell>
        <mxCell id="A8SuVj7kzore_3M0HXv3-89" style="edgeStyle=orthogonalEdgeStyle;rounded=0;orthogonalLoop=1;jettySize=auto;html=1;exitX=0;exitY=0.5;exitDx=0;exitDy=0;entryX=0;entryY=0.5;entryDx=0;entryDy=0;" edge="1" parent="1" source="A8SuVj7kzore_3M0HXv3-86" target="A8SuVj7kzore_3M0HXv3-87">
          <mxGeometry relative="1" as="geometry">
            <Array as="points">
              <mxPoint x="830" y="2045" />
              <mxPoint x="830" y="2125" />
            </Array>
          </mxGeometry>
        </mxCell>
        <mxCell id="A8SuVj7kzore_3M0HXv3-91" style="edgeStyle=orthogonalEdgeStyle;rounded=0;orthogonalLoop=1;jettySize=auto;html=1;exitX=1;exitY=0.5;exitDx=0;exitDy=0;entryX=0;entryY=0.5;entryDx=0;entryDy=0;" edge="1" parent="1" source="A8SuVj7kzore_3M0HXv3-84" target="A8SuVj7kzore_3M0HXv3-88">
          <mxGeometry relative="1" as="geometry" />
        </mxCell>
        <mxCell id="A8SuVj7kzore_3M0HXv3-84" value="«interface»&lt;br&gt;&lt;b&gt;Main Window&lt;/b&gt;" style="html=1;" vertex="1" parent="1">
          <mxGeometry x="700" y="2100" width="110" height="50" as="geometry" />
        </mxCell>
        <mxCell id="A8SuVj7kzore_3M0HXv3-86" value="«interface»&lt;br&gt;&lt;b&gt;Email Setting Window&lt;/b&gt;" style="html=1;" vertex="1" parent="1">
          <mxGeometry x="850" y="2020" width="155" height="50" as="geometry" />
        </mxCell>
        <mxCell id="A8SuVj7kzore_3M0HXv3-87" value="«interface»&lt;br&gt;&lt;b&gt;Refresh Time Setting Window&lt;/b&gt;" style="html=1;" vertex="1" parent="1">
          <mxGeometry x="850" y="2100" width="187" height="50" as="geometry" />
        </mxCell>
        <mxCell id="A8SuVj7kzore_3M0HXv3-88" value="«interface»&lt;br&gt;&lt;b&gt;Problem Report Window&lt;/b&gt;" style="html=1;" vertex="1" parent="1">
          <mxGeometry x="850" y="2190" width="170" height="50" as="geometry" />
        </mxCell>
      </root>
    </mxGraphModel>
  </diagram>
</mxfile>
